<mxfile host="Electron" modified="2024-09-19T06:59:04.329Z" agent="Mozilla/5.0 (Windows NT 10.0; Win64; x64) AppleWebKit/537.36 (KHTML, like Gecko) draw.io/24.4.0 Chrome/120.0.6099.109 Electron/28.1.0 Safari/537.36" etag="Zs2mdkBdy3OAOWKqSUhr" version="24.4.0" type="device">
  <diagram name="Страница — 1" id="rO9kqneDRQlY4SwiDhQW">
    <mxGraphModel dx="1036" dy="606" grid="1" gridSize="10" guides="1" tooltips="1" connect="1" arrows="1" fold="1" page="1" pageScale="1" pageWidth="827" pageHeight="1169" math="0" shadow="0">
      <root>
        <mxCell id="0" />
        <mxCell id="1" parent="0" />
        <mxCell id="0Lvjlwg-gtmjkAOwMM5f-17" style="edgeStyle=orthogonalEdgeStyle;rounded=0;orthogonalLoop=1;jettySize=auto;html=1;entryX=0.5;entryY=0;entryDx=0;entryDy=0;dashed=1;dashPattern=8 8;" edge="1" parent="1" source="0Lvjlwg-gtmjkAOwMM5f-1" target="0Lvjlwg-gtmjkAOwMM5f-2">
          <mxGeometry relative="1" as="geometry" />
        </mxCell>
        <mxCell id="0Lvjlwg-gtmjkAOwMM5f-18" style="edgeStyle=orthogonalEdgeStyle;rounded=0;orthogonalLoop=1;jettySize=auto;html=1;entryX=0.5;entryY=0;entryDx=0;entryDy=0;dashed=1;dashPattern=8 8;" edge="1" parent="1" source="0Lvjlwg-gtmjkAOwMM5f-1" target="0Lvjlwg-gtmjkAOwMM5f-4">
          <mxGeometry relative="1" as="geometry" />
        </mxCell>
        <mxCell id="0Lvjlwg-gtmjkAOwMM5f-19" style="edgeStyle=orthogonalEdgeStyle;rounded=0;orthogonalLoop=1;jettySize=auto;html=1;entryX=0.5;entryY=0;entryDx=0;entryDy=0;dashed=1;dashPattern=8 8;" edge="1" parent="1" source="0Lvjlwg-gtmjkAOwMM5f-1" target="0Lvjlwg-gtmjkAOwMM5f-3">
          <mxGeometry relative="1" as="geometry" />
        </mxCell>
        <mxCell id="0Lvjlwg-gtmjkAOwMM5f-1" value="&lt;font style=&quot;font-size: 19px;&quot;&gt;Vegetables&lt;/font&gt;" style="rounded=0;whiteSpace=wrap;html=1;" vertex="1" parent="1">
          <mxGeometry x="354" y="80" width="120" height="60" as="geometry" />
        </mxCell>
        <mxCell id="0Lvjlwg-gtmjkAOwMM5f-2" value="&lt;span style=&quot;font-size: 19px;&quot;&gt;Tomato&lt;/span&gt;" style="rounded=0;whiteSpace=wrap;html=1;" vertex="1" parent="1">
          <mxGeometry x="180" y="350" width="120" height="60" as="geometry" />
        </mxCell>
        <mxCell id="0Lvjlwg-gtmjkAOwMM5f-3" value="&lt;span style=&quot;font-size: 19px;&quot;&gt;Onion&lt;/span&gt;" style="rounded=0;whiteSpace=wrap;html=1;" vertex="1" parent="1">
          <mxGeometry x="354" y="350" width="120" height="60" as="geometry" />
        </mxCell>
        <mxCell id="0Lvjlwg-gtmjkAOwMM5f-4" value="&lt;span style=&quot;font-size: 19px;&quot;&gt;Cucumber&lt;/span&gt;" style="rounded=0;whiteSpace=wrap;html=1;" vertex="1" parent="1">
          <mxGeometry x="530" y="350" width="120" height="60" as="geometry" />
        </mxCell>
        <mxCell id="0Lvjlwg-gtmjkAOwMM5f-5" value="&lt;span style=&quot;font-size: 19px;&quot;&gt;Count&lt;/span&gt;" style="ellipse;whiteSpace=wrap;html=1;" vertex="1" parent="1">
          <mxGeometry x="40" width="120" height="80" as="geometry" />
        </mxCell>
        <mxCell id="0Lvjlwg-gtmjkAOwMM5f-6" value="&lt;span style=&quot;font-size: 19px;&quot;&gt;Name&lt;/span&gt;" style="ellipse;whiteSpace=wrap;html=1;" vertex="1" parent="1">
          <mxGeometry x="40" y="90" width="120" height="80" as="geometry" />
        </mxCell>
        <mxCell id="0Lvjlwg-gtmjkAOwMM5f-9" value="1" style="rhombus;whiteSpace=wrap;html=1;" vertex="1" parent="1">
          <mxGeometry x="374" y="200" width="80" height="80" as="geometry" />
        </mxCell>
        <mxCell id="0Lvjlwg-gtmjkAOwMM5f-11" value="1" style="rhombus;whiteSpace=wrap;html=1;" vertex="1" parent="1">
          <mxGeometry x="200" y="200" width="80" height="80" as="geometry" />
        </mxCell>
        <mxCell id="0Lvjlwg-gtmjkAOwMM5f-13" value="1" style="rhombus;whiteSpace=wrap;html=1;" vertex="1" parent="1">
          <mxGeometry x="550" y="200" width="80" height="80" as="geometry" />
        </mxCell>
        <mxCell id="0Lvjlwg-gtmjkAOwMM5f-22" value="" style="endArrow=none;html=1;rounded=0;entryX=0;entryY=0.5;entryDx=0;entryDy=0;exitX=1;exitY=0.5;exitDx=0;exitDy=0;" edge="1" parent="1" source="0Lvjlwg-gtmjkAOwMM5f-6" target="0Lvjlwg-gtmjkAOwMM5f-1">
          <mxGeometry width="50" height="50" relative="1" as="geometry">
            <mxPoint x="450" y="340" as="sourcePoint" />
            <mxPoint x="500" y="290" as="targetPoint" />
          </mxGeometry>
        </mxCell>
        <mxCell id="0Lvjlwg-gtmjkAOwMM5f-23" value="" style="endArrow=none;html=1;rounded=0;entryX=0;entryY=0.5;entryDx=0;entryDy=0;exitX=1;exitY=0.5;exitDx=0;exitDy=0;" edge="1" parent="1" source="0Lvjlwg-gtmjkAOwMM5f-5" target="0Lvjlwg-gtmjkAOwMM5f-1">
          <mxGeometry width="50" height="50" relative="1" as="geometry">
            <mxPoint x="450" y="160" as="sourcePoint" />
            <mxPoint x="500" y="110" as="targetPoint" />
          </mxGeometry>
        </mxCell>
        <mxCell id="0Lvjlwg-gtmjkAOwMM5f-24" value="&lt;span style=&quot;font-size: 19px;&quot;&gt;Calories&lt;/span&gt;" style="ellipse;whiteSpace=wrap;html=1;" vertex="1" parent="1">
          <mxGeometry x="180" y="460" width="120" height="80" as="geometry" />
        </mxCell>
        <mxCell id="0Lvjlwg-gtmjkAOwMM5f-25" value="&lt;span style=&quot;font-size: 19px;&quot;&gt;Calories&lt;/span&gt;" style="ellipse;whiteSpace=wrap;html=1;" vertex="1" parent="1">
          <mxGeometry x="354" y="460" width="120" height="80" as="geometry" />
        </mxCell>
        <mxCell id="0Lvjlwg-gtmjkAOwMM5f-26" value="&lt;span style=&quot;font-size: 19px;&quot;&gt;Calories&lt;/span&gt;" style="ellipse;whiteSpace=wrap;html=1;" vertex="1" parent="1">
          <mxGeometry x="530" y="460" width="120" height="80" as="geometry" />
        </mxCell>
        <mxCell id="0Lvjlwg-gtmjkAOwMM5f-27" value="" style="endArrow=none;html=1;rounded=0;entryX=0.5;entryY=1;entryDx=0;entryDy=0;exitX=0.5;exitY=0;exitDx=0;exitDy=0;" edge="1" parent="1" source="0Lvjlwg-gtmjkAOwMM5f-24" target="0Lvjlwg-gtmjkAOwMM5f-2">
          <mxGeometry width="50" height="50" relative="1" as="geometry">
            <mxPoint x="450" y="400" as="sourcePoint" />
            <mxPoint x="500" y="350" as="targetPoint" />
          </mxGeometry>
        </mxCell>
        <mxCell id="0Lvjlwg-gtmjkAOwMM5f-28" value="" style="endArrow=none;html=1;rounded=0;entryX=0.5;entryY=1;entryDx=0;entryDy=0;exitX=0.5;exitY=0;exitDx=0;exitDy=0;" edge="1" parent="1">
          <mxGeometry width="50" height="50" relative="1" as="geometry">
            <mxPoint x="413" y="460" as="sourcePoint" />
            <mxPoint x="413" y="410" as="targetPoint" />
          </mxGeometry>
        </mxCell>
        <mxCell id="0Lvjlwg-gtmjkAOwMM5f-29" value="" style="endArrow=none;html=1;rounded=0;entryX=0.5;entryY=1;entryDx=0;entryDy=0;exitX=0.5;exitY=0;exitDx=0;exitDy=0;" edge="1" parent="1">
          <mxGeometry width="50" height="50" relative="1" as="geometry">
            <mxPoint x="589.5" y="460" as="sourcePoint" />
            <mxPoint x="589.5" y="410" as="targetPoint" />
          </mxGeometry>
        </mxCell>
      </root>
    </mxGraphModel>
  </diagram>
</mxfile>
